<svg width="24" height="25" viewBox="0 0 24 25" fill="none" xmlns="http://www.w3.org/2000/svg">
<path d="M12 22.4102C17.5228 22.4102 22 17.933 22 12.4102C22 6.88731 17.5228 2.41016 12 2.41016C6.47715 2.41016 2 6.88731 2 12.4102C2 17.933 6.47715 22.4102 12 22.4102Z" stroke="white" stroke-width="2" stroke-linecap="round" stroke-linejoin="round"/>
<path d="M12 18.4102C15.3137 18.4102 18 15.7239 18 12.4102C18 9.09645 15.3137 6.41016 12 6.41016C8.68629 6.41016 6 9.09645 6 12.4102C6 15.7239 8.68629 18.4102 12 18.4102Z" stroke="white" stroke-width="2" stroke-linecap="round" stroke-linejoin="round"/>
<path d="M12 14.4102C13.1046 14.4102 14 13.5147 14 12.4102C14 11.3056 13.1046 10.4102 12 10.4102C10.8954 10.4102 10 11.3056 10 12.4102C10 13.5147 10.8954 14.4102 12 14.4102Z" stroke="white" stroke-width="2" stroke-linecap="round" stroke-linejoin="round"/>
</svg>
