<svg width="20" height="21" viewBox="0 0 20 21" fill="none" xmlns="http://www.w3.org/2000/svg">
<path d="M12.5 18.6335V15.3001C12.6159 14.2562 12.3166 13.2086 11.6667 12.3835C14.1667 12.3835 16.6667 10.7168 16.6667 7.80013C16.7333 6.75846 16.4417 5.73346 15.8333 4.88346C16.0667 3.92513 16.0667 2.92513 15.8333 1.9668C15.8333 1.9668 15 1.9668 13.3333 3.2168C11.1333 2.80013 8.86666 2.80013 6.66666 3.2168C4.99999 1.9668 4.16666 1.9668 4.16666 1.9668C3.91666 2.92513 3.91666 3.92513 4.16666 4.88346C3.55988 5.73003 3.26538 6.76079 3.33332 7.80013C3.33332 10.7168 5.83332 12.3835 8.33332 12.3835C8.00832 12.7918 7.76666 13.2585 7.62499 13.7585C7.48332 14.2585 7.44166 14.7835 7.49999 15.3001V18.6335" stroke="#16A34A" stroke-width="1.66667" stroke-linecap="round" stroke-linejoin="round"/>
<path d="M7.49996 15.3C3.74163 16.9666 3.33329 13.6333 1.66663 13.6333" stroke="#16A34A" stroke-width="1.66667" stroke-linecap="round" stroke-linejoin="round"/>
</svg>
