<svg width="24" height="25" viewBox="0 0 24 25" fill="none" xmlns="http://www.w3.org/2000/svg">
<path d="M20 2.62988H4C2.89543 2.62988 2 3.52531 2 4.62988V8.62988C2 9.73445 2.89543 10.6299 4 10.6299H20C21.1046 10.6299 22 9.73445 22 8.62988V4.62988C22 3.52531 21.1046 2.62988 20 2.62988Z" stroke="white" stroke-width="2" stroke-linecap="round" stroke-linejoin="round"/>
<path d="M20 14.6299H4C2.89543 14.6299 2 15.5253 2 16.6299V20.6299C2 21.7345 2.89543 22.6299 4 22.6299H20C21.1046 22.6299 22 21.7345 22 20.6299V16.6299C22 15.5253 21.1046 14.6299 20 14.6299Z" stroke="white" stroke-width="2" stroke-linecap="round" stroke-linejoin="round"/>
<path d="M6 6.62988H6.01" stroke="white" stroke-width="2" stroke-linecap="round" stroke-linejoin="round"/>
<path d="M6 18.6299H6.01" stroke="white" stroke-width="2" stroke-linecap="round" stroke-linejoin="round"/>
</svg>
