<svg width="20" height="21" viewBox="0 0 20 21" fill="none" xmlns="http://www.w3.org/2000/svg">
<path d="M13.3334 6.9668C14.6595 6.9668 15.9312 7.49358 16.8689 8.43126C17.8066 9.36894 18.3334 10.6407 18.3334 11.9668V17.8001H15V11.9668C15 11.5248 14.8244 11.1008 14.5119 10.7883C14.1993 10.4757 13.7754 10.3001 13.3334 10.3001C12.8913 10.3001 12.4674 10.4757 12.1549 10.7883C11.8423 11.1008 11.6667 11.5248 11.6667 11.9668V17.8001H8.33337V11.9668C8.33337 10.6407 8.86016 9.36894 9.79784 8.43126C10.7355 7.49358 12.0073 6.9668 13.3334 6.9668Z" stroke="#16A34A" stroke-width="1.66667" stroke-linecap="round" stroke-linejoin="round"/>
<path d="M4.99996 7.80005H1.66663V17.8H4.99996V7.80005Z" stroke="#16A34A" stroke-width="1.66667" stroke-linecap="round" stroke-linejoin="round"/>
<path d="M3.33329 5.30013C4.25377 5.30013 4.99996 4.55394 4.99996 3.63346C4.99996 2.71299 4.25377 1.9668 3.33329 1.9668C2.41282 1.9668 1.66663 2.71299 1.66663 3.63346C1.66663 4.55394 2.41282 5.30013 3.33329 5.30013Z" stroke="#16A34A" stroke-width="1.66667" stroke-linecap="round" stroke-linejoin="round"/>
</svg>
