<svg width="21" height="20" viewBox="0 0 21 20" fill="none" xmlns="http://www.w3.org/2000/svg">
<path d="M10.5 2.5L8.90667 7.34417C8.82512 7.59209 8.6865 7.8174 8.50195 8.00195C8.3174 8.1865 8.09209 8.32512 7.84417 8.40667L3 10L7.84417 11.5933C8.09209 11.6749 8.3174 11.8135 8.50195 11.9981C8.6865 12.1826 8.82512 12.4079 8.90667 12.6558L10.5 17.5L12.0933 12.6558C12.1749 12.4079 12.3135 12.1826 12.4981 11.9981C12.6826 11.8135 12.9079 11.6749 13.1558 11.5933L18 10L13.1558 8.40667C12.9079 8.32512 12.6826 8.1865 12.4981 8.00195C12.3135 7.8174 12.1749 7.59209 12.0933 7.34417L10.5 2.5Z" stroke="#16A34A" stroke-width="1.66667" stroke-linecap="round" stroke-linejoin="round"/>
<path d="M4.66663 2.5V5.83333" stroke="#16A34A" stroke-width="1.66667" stroke-linecap="round" stroke-linejoin="round"/>
<path d="M16.3334 14.1665V17.4998" stroke="#16A34A" stroke-width="1.66667" stroke-linecap="round" stroke-linejoin="round"/>
<path d="M3 4.1665H6.33333" stroke="#16A34A" stroke-width="1.66667" stroke-linecap="round" stroke-linejoin="round"/>
<path d="M14.6666 15.8335H18" stroke="#16A34A" stroke-width="1.66667" stroke-linecap="round" stroke-linejoin="round"/>
</svg>
